<?xml version="1.0" standalone="no"?>
<!DOCTYPE svg PUBLIC "-//W3C//DTD SVG 20010904//EN"
 "http://www.w3.org/TR/2001/REC-SVG-20010904/DTD/svg10.dtd">
<svg version="1.0" xmlns="http://www.w3.org/2000/svg"
 width="700.000000pt" height="700.000000pt" viewBox="0 0 700.000000 700.000000"
 preserveAspectRatio="xMidYMid meet">
<metadata>
Created by potrace 1.11, written by Peter Selinger 2001-2013
</metadata>
<g transform="translate(0.000000,700.000000) scale(0.100000,-0.100000)"
fill="#000000" stroke="none">
<path d="M5420 6988 c0 -29 -40 -337 -50 -388 -44 -223 -149 -379 -305 -451
-84 -40 -195 -61 -505 -99 -140 -17 -312 -39 -382 -51 -261 -41 -425 -121
-569 -277 -154 -166 -225 -364 -249 -692 -19 -248 -18 -247 -43 -254 -12 -3
-763 -6 -1669 -6 l-1648 0 0 -1590 0 -1590 3500 0 3500 0 0 1590 0 1590 -1667
2 -1668 3 2 80 c7 222 41 411 95 524 40 84 149 195 231 234 112 54 215 72 717
127 107 12 232 30 278 41 466 108 703 444 737 1044 3 61 8 125 11 143 l5 32
-161 0 c-121 0 -160 -3 -160 -12z m-4472 -2850 l2 -318 -315 0 -315 0 0 320 0
320 313 -2 312 -3 3 -317z m960 0 l2 -318 -320 0 -320 0 0 313 c0 173 3 317 7
320 4 4 146 6 317 5 l311 -3 3 -317z m952 2 l0 -320 -315 0 -315 0 0 320 0
320 315 0 315 0 0 -320z m958 -2 l2 -318 -320 0 -320 0 0 313 c0 173 3 317 7
320 4 4 146 6 317 5 l311 -3 3 -317z m952 2 l0 -320 -315 0 -315 0 0 320 0
320 315 0 315 0 0 -320z m958 -2 l2 -318 -320 0 -320 0 0 313 c0 173 3 317 7
320 4 4 146 6 317 5 l311 -3 3 -317z m952 -3 l0 -315 -315 0 -315 0 0 315 0
315 315 0 315 0 0 -315z m-5250 -955 l0 -320 -555 0 -555 0 0 320 0 320 555 0
555 0 0 -320z m955 0 l0 -315 -317 -3 -318 -2 0 320 0 320 318 -2 317 -3 0
-315z m955 0 l0 -320 -320 0 -320 0 0 313 c0 173 3 317 7 320 3 4 147 7 320 7
l313 0 0 -320z m958 -2 l2 -318 -320 0 -320 0 0 320 0 320 318 -2 317 -3 3
-317z m952 2 l0 -320 -317 2 -318 3 -3 305 c-1 168 0 310 3 317 3 10 75 13
320 13 l315 0 0 -320z m1430 0 l0 -320 -555 0 -555 0 0 320 0 320 555 0 555 0
0 -320z m-5730 -955 l0 -315 -315 0 -315 0 0 315 0 315 315 0 315 0 0 -315z
m960 0 l0 -315 -320 0 -320 0 0 315 0 315 320 0 320 0 0 -315z m2860 0 l0
-315 -1270 0 -1270 0 0 315 0 315 1270 0 1270 0 0 -315z m960 0 l0 -315 -320
0 -320 0 0 315 0 315 320 0 320 0 0 -315z m950 0 l0 -315 -315 0 -315 0 0 315
0 315 315 0 315 0 0 -315z"/>
</g>
</svg>
